<svg width="1320" height="328" viewBox="0 0 1320 328" fill="none" xmlns="http://www.w3.org/2000/svg">
<g clip-path="url(#clip0_501_1667)">
<path d="M0 0H1320V328H0V0Z" fill="#8276FF"/>
<path d="M1112.6 210.995L1062.03 137.339C1015.59 69.679 1037.09 -18.6387 1110.05 -59.9252L1323.4 -193.062L1456.26 16.5393C1502.7 84.1997 1481.21 172.517 1408.24 213.804L1328.81 258.748C1255.85 300.035 1159.04 278.655 1112.6 210.995Z" fill="url(#paint0_linear_501_1667)"/>
<path d="M230.631 147.947L294.441 210.476C353.057 267.916 348.985 358.721 285.346 413.296L101.657 585.057L-69.1065 404.992C-127.722 347.552 -123.65 256.747 -60.0107 202.172L9.26819 142.761C72.9073 88.1853 172.015 90.5074 230.631 147.947Z" fill="url(#paint1_linear_501_1667)"/>
<path d="M367.32 69.428L366.423 72.548H372.936L372.039 69.428C371.623 68.076 371.22 66.685 370.83 65.255C370.466 63.825 370.102 62.408 369.738 61.004H369.582C369.244 62.434 368.88 63.864 368.49 65.294C368.126 66.698 367.736 68.076 367.32 69.428ZM358.779 83L367.086 57.494H372.39L380.697 83H375.939L373.95 76.097H365.37L363.381 83H358.779ZM391.719 83.468C389.977 83.468 388.404 83.078 387 82.298C385.622 81.492 384.517 80.348 383.685 78.866C382.879 77.358 382.476 75.551 382.476 73.445C382.476 71.313 382.918 69.506 383.802 68.024C384.686 66.516 385.856 65.372 387.312 64.592C388.794 63.786 390.38 63.383 392.07 63.383C393.292 63.383 394.358 63.591 395.268 64.007C396.178 64.423 396.984 64.93 397.686 65.528L395.502 68.453C395.008 68.011 394.501 67.673 393.981 67.439C393.461 67.179 392.902 67.049 392.304 67.049C390.77 67.049 389.509 67.634 388.521 68.804C387.559 69.974 387.078 71.521 387.078 73.445C387.078 75.343 387.546 76.877 388.482 78.047C389.444 79.217 390.679 79.802 392.187 79.802C392.941 79.802 393.643 79.646 394.293 79.334C394.969 78.996 395.58 78.606 396.126 78.164L397.959 81.128C397.075 81.908 396.087 82.493 394.995 82.883C393.903 83.273 392.811 83.468 391.719 83.468ZM402.012 83V55.466H406.497V62.564L406.341 66.269C407.147 65.515 408.044 64.852 409.032 64.28C410.02 63.682 411.164 63.383 412.464 63.383C414.518 63.383 416.013 64.046 416.949 65.372C417.885 66.698 418.353 68.57 418.353 70.988V83H413.868V71.573C413.868 69.987 413.634 68.869 413.166 68.219C412.698 67.569 411.931 67.244 410.865 67.244C410.033 67.244 409.292 67.452 408.642 67.868C408.018 68.258 407.303 68.843 406.497 69.623V83H402.012ZM424.032 83V63.851H428.517V83H424.032ZM426.294 60.497C425.488 60.497 424.838 60.263 424.344 59.795C423.85 59.327 423.603 58.703 423.603 57.923C423.603 57.169 423.85 56.558 424.344 56.09C424.838 55.622 425.488 55.388 426.294 55.388C427.1 55.388 427.75 55.622 428.244 56.09C428.738 56.558 428.985 57.169 428.985 57.923C428.985 58.703 428.738 59.327 428.244 59.795C427.75 60.263 427.1 60.497 426.294 60.497ZM442.702 83.468C440.934 83.468 439.335 83.078 437.905 82.298C436.475 81.492 435.344 80.348 434.512 78.866C433.68 77.358 433.264 75.551 433.264 73.445C433.264 71.365 433.68 69.571 434.512 68.063C435.37 66.555 436.475 65.398 437.827 64.592C439.179 63.786 440.596 63.383 442.078 63.383C443.82 63.383 445.276 63.773 446.446 64.553C447.616 65.307 448.5 66.373 449.098 67.751C449.696 69.103 449.995 70.676 449.995 72.47C449.995 73.406 449.93 74.134 449.8 74.654H437.632C437.84 76.344 438.451 77.657 439.465 78.593C440.479 79.529 441.753 79.997 443.287 79.997C444.119 79.997 444.886 79.88 445.588 79.646C446.316 79.386 447.031 79.035 447.733 78.593L449.254 81.401C448.344 81.999 447.33 82.493 446.212 82.883C445.094 83.273 443.924 83.468 442.702 83.468ZM437.593 71.612H446.095C446.095 70.13 445.77 68.973 445.12 68.141C444.47 67.283 443.495 66.854 442.195 66.854C441.077 66.854 440.076 67.27 439.192 68.102C438.334 68.908 437.801 70.078 437.593 71.612ZM458.841 83L452.172 63.851H456.735L459.777 73.796C460.037 74.732 460.297 75.681 460.557 76.643C460.843 77.605 461.116 78.58 461.376 79.568H461.532C461.818 78.58 462.091 77.605 462.351 76.643C462.637 75.681 462.91 74.732 463.17 73.796L466.212 63.851H470.541L464.028 83H458.841ZM482.095 83.468C480.327 83.468 478.728 83.078 477.298 82.298C475.868 81.492 474.737 80.348 473.905 78.866C473.073 77.358 472.657 75.551 472.657 73.445C472.657 71.365 473.073 69.571 473.905 68.063C474.763 66.555 475.868 65.398 477.22 64.592C478.572 63.786 479.989 63.383 481.471 63.383C483.213 63.383 484.669 63.773 485.839 64.553C487.009 65.307 487.893 66.373 488.491 67.751C489.089 69.103 489.388 70.676 489.388 72.47C489.388 73.406 489.323 74.134 489.193 74.654H477.025C477.233 76.344 477.844 77.657 478.858 78.593C479.872 79.529 481.146 79.997 482.68 79.997C483.512 79.997 484.279 79.88 484.981 79.646C485.709 79.386 486.424 79.035 487.126 78.593L488.647 81.401C487.737 81.999 486.723 82.493 485.605 82.883C484.487 83.273 483.317 83.468 482.095 83.468ZM476.986 71.612H485.488C485.488 70.13 485.163 68.973 484.513 68.141C483.863 67.283 482.888 66.854 481.588 66.854C480.47 66.854 479.469 67.27 478.585 68.102C477.727 68.908 477.194 70.078 476.986 71.612ZM506.666 83.468C505.002 83.468 503.637 82.948 502.571 81.908C501.531 80.868 501.011 79.516 501.011 77.852C501.011 75.798 501.908 74.212 503.702 73.094C505.496 71.95 508.356 71.17 512.282 70.754C512.256 69.74 511.983 68.869 511.463 68.141C510.969 67.387 510.072 67.01 508.772 67.01C507.836 67.01 506.913 67.192 506.003 67.556C505.119 67.92 504.248 68.362 503.39 68.882L501.752 65.879C502.818 65.203 504.014 64.618 505.34 64.124C506.692 63.63 508.122 63.383 509.63 63.383C512.022 63.383 513.803 64.098 514.973 65.528C516.169 66.932 516.767 68.973 516.767 71.651V83H513.062L512.75 80.894H512.594C511.736 81.622 510.813 82.233 509.825 82.727C508.863 83.221 507.81 83.468 506.666 83.468ZM508.109 79.958C508.889 79.958 509.591 79.776 510.215 79.412C510.865 79.022 511.554 78.502 512.282 77.852V73.562C509.682 73.9 507.875 74.407 506.861 75.083C505.847 75.733 505.34 76.539 505.34 77.501C505.34 78.359 505.6 78.983 506.12 79.373C506.64 79.763 507.303 79.958 508.109 79.958ZM530.878 83V57.494H535.519L543.475 71.846L546.088 77.267H546.244C546.14 75.967 546.01 74.55 545.854 73.016C545.724 71.482 545.659 70 545.659 68.57V57.494H549.988V83H545.347L537.391 68.648L534.778 63.227H534.622C534.726 64.579 534.843 65.996 534.973 67.478C535.129 68.96 535.207 70.416 535.207 71.846V83H530.878ZM564.545 83.468C562.777 83.468 561.178 83.078 559.748 82.298C558.318 81.492 557.187 80.348 556.355 78.866C555.523 77.358 555.107 75.551 555.107 73.445C555.107 71.365 555.523 69.571 556.355 68.063C557.213 66.555 558.318 65.398 559.67 64.592C561.022 63.786 562.439 63.383 563.921 63.383C565.663 63.383 567.119 63.773 568.289 64.553C569.459 65.307 570.343 66.373 570.941 67.751C571.539 69.103 571.838 70.676 571.838 72.47C571.838 73.406 571.773 74.134 571.643 74.654H559.475C559.683 76.344 560.294 77.657 561.308 78.593C562.322 79.529 563.596 79.997 565.13 79.997C565.962 79.997 566.729 79.88 567.431 79.646C568.159 79.386 568.874 79.035 569.576 78.593L571.097 81.401C570.187 81.999 569.173 82.493 568.055 82.883C566.937 83.273 565.767 83.468 564.545 83.468ZM559.436 71.612H567.938C567.938 70.13 567.613 68.973 566.963 68.141C566.313 67.283 565.338 66.854 564.038 66.854C562.92 66.854 561.919 67.27 561.035 68.102C560.177 68.908 559.644 70.078 559.436 71.612ZM579.554 83L574.484 63.851H579.008L581.309 73.796C581.517 74.706 581.686 75.616 581.816 76.526C581.972 77.436 582.141 78.359 582.323 79.295H582.479C582.661 78.359 582.843 77.436 583.025 76.526C583.233 75.59 583.454 74.68 583.688 73.796L586.184 63.851H590.279L592.814 73.796C593.048 74.706 593.269 75.616 593.477 76.526C593.685 77.436 593.893 78.359 594.101 79.295H594.257C594.439 78.359 594.608 77.436 594.764 76.526C594.92 75.616 595.089 74.706 595.271 73.796L597.572 63.851H601.784L596.909 83H591.566L589.343 74.069C589.135 73.159 588.94 72.262 588.758 71.378C588.576 70.468 588.381 69.506 588.173 68.492H588.017C587.835 69.506 587.653 70.468 587.471 71.378C587.289 72.288 587.094 73.198 586.886 74.108L584.702 83H579.554ZM614.312 83V57.494H618.836V79.178H629.444V83H614.312ZM641.466 83.468C639.698 83.468 638.099 83.078 636.669 82.298C635.239 81.492 634.108 80.348 633.276 78.866C632.444 77.358 632.028 75.551 632.028 73.445C632.028 71.365 632.444 69.571 633.276 68.063C634.134 66.555 635.239 65.398 636.591 64.592C637.943 63.786 639.36 63.383 640.842 63.383C642.584 63.383 644.04 63.773 645.21 64.553C646.38 65.307 647.264 66.373 647.862 67.751C648.46 69.103 648.759 70.676 648.759 72.47C648.759 73.406 648.694 74.134 648.564 74.654H636.396C636.604 76.344 637.215 77.657 638.229 78.593C639.243 79.529 640.517 79.997 642.051 79.997C642.883 79.997 643.65 79.88 644.352 79.646C645.08 79.386 645.795 79.035 646.497 78.593L648.018 81.401C647.108 81.999 646.094 82.493 644.976 82.883C643.858 83.273 642.688 83.468 641.466 83.468ZM636.357 71.612H644.859C644.859 70.13 644.534 68.973 643.884 68.141C643.234 67.283 642.259 66.854 640.959 66.854C639.841 66.854 638.84 67.27 637.956 68.102C637.098 68.908 636.565 70.078 636.357 71.612ZM657.606 83L650.937 63.851H655.5L658.542 73.796C658.802 74.732 659.062 75.681 659.322 76.643C659.608 77.605 659.881 78.58 660.141 79.568H660.297C660.583 78.58 660.856 77.605 661.116 76.643C661.402 75.681 661.675 74.732 661.935 73.796L664.977 63.851H669.306L662.793 83H657.606ZM680.86 83.468C679.092 83.468 677.493 83.078 676.063 82.298C674.633 81.492 673.502 80.348 672.67 78.866C671.838 77.358 671.422 75.551 671.422 73.445C671.422 71.365 671.838 69.571 672.67 68.063C673.528 66.555 674.633 65.398 675.985 64.592C677.337 63.786 678.754 63.383 680.236 63.383C681.978 63.383 683.434 63.773 684.604 64.553C685.774 65.307 686.658 66.373 687.256 67.751C687.854 69.103 688.153 70.676 688.153 72.47C688.153 73.406 688.088 74.134 687.958 74.654H675.79C675.998 76.344 676.609 77.657 677.623 78.593C678.637 79.529 679.911 79.997 681.445 79.997C682.277 79.997 683.044 79.88 683.746 79.646C684.474 79.386 685.189 79.035 685.891 78.593L687.412 81.401C686.502 81.999 685.488 82.493 684.37 82.883C683.252 83.273 682.082 83.468 680.86 83.468ZM675.751 71.612H684.253C684.253 70.13 683.928 68.973 683.278 68.141C682.628 67.283 681.653 66.854 680.353 66.854C679.235 66.854 678.234 67.27 677.35 68.102C676.492 68.908 675.959 70.078 675.751 71.612ZM697.078 83.468C695.492 83.468 694.361 82.987 693.685 82.025C693.035 81.063 692.71 79.75 692.71 78.086V55.466H697.195V78.32C697.195 78.866 697.299 79.256 697.507 79.49C697.715 79.698 697.936 79.802 698.17 79.802C698.274 79.802 698.365 79.802 698.443 79.802C698.547 79.776 698.69 79.75 698.872 79.724L699.457 83.078C699.197 83.182 698.859 83.273 698.443 83.351C698.053 83.429 697.598 83.468 697.078 83.468ZM719.49 83.468C717.904 83.468 716.422 83.078 715.044 82.298C713.666 81.492 712.548 80.348 711.69 78.866C710.832 77.358 710.403 75.551 710.403 73.445C710.403 71.313 710.832 69.506 711.69 68.024C712.548 66.516 713.666 65.372 715.044 64.592C716.422 63.786 717.904 63.383 719.49 63.383C721.102 63.383 722.597 63.786 723.975 64.592C725.353 65.372 726.471 66.516 727.329 68.024C728.187 69.506 728.616 71.313 728.616 73.445C728.616 75.551 728.187 77.358 727.329 78.866C726.471 80.348 725.353 81.492 723.975 82.298C722.597 83.078 721.102 83.468 719.49 83.468ZM719.49 79.802C720.894 79.802 721.999 79.217 722.805 78.047C723.611 76.877 724.014 75.343 724.014 73.445C724.014 71.521 723.611 69.974 722.805 68.804C721.999 67.634 720.894 67.049 719.49 67.049C718.086 67.049 716.981 67.634 716.175 68.804C715.395 69.974 715.005 71.521 715.005 73.445C715.005 75.343 715.395 76.877 716.175 78.047C716.981 79.217 718.086 79.802 719.49 79.802ZM733.956 83V67.4H731.382V64.046L733.956 63.851V61.862C733.956 59.86 734.45 58.222 735.438 56.948C736.426 55.648 738.051 54.998 740.313 54.998C740.989 54.998 741.639 55.063 742.263 55.193C742.887 55.323 743.407 55.479 743.823 55.661L742.965 59.015C742.263 58.703 741.561 58.547 740.859 58.547C739.247 58.547 738.441 59.626 738.441 61.784V63.851H742.185V67.4H738.441V83H733.956ZM754.298 83V57.494H762.332C764.23 57.494 765.92 57.741 767.402 58.235C768.884 58.729 770.054 59.548 770.912 60.692C771.77 61.836 772.199 63.396 772.199 65.372C772.199 67.244 771.77 68.791 770.912 70.013C770.054 71.235 768.897 72.145 767.441 72.743C765.985 73.341 764.334 73.64 762.488 73.64H758.822V83H754.298ZM758.822 70.013H762.137C765.881 70.013 767.753 68.466 767.753 65.372C767.753 63.76 767.259 62.655 766.271 62.057C765.309 61.433 763.879 61.121 761.981 61.121H758.822V70.013ZM776.88 83V63.851H780.585L780.897 67.244H781.053C781.729 65.996 782.548 65.047 783.51 64.397C784.472 63.721 785.46 63.383 786.474 63.383C787.384 63.383 788.112 63.513 788.658 63.773L787.878 67.673C787.54 67.569 787.228 67.491 786.942 67.439C786.656 67.387 786.305 67.361 785.889 67.361C785.135 67.361 784.342 67.66 783.51 68.258C782.678 68.83 781.963 69.844 781.365 71.3V83H776.88ZM799.16 83.468C797.574 83.468 796.092 83.078 794.714 82.298C793.336 81.492 792.218 80.348 791.36 78.866C790.502 77.358 790.073 75.551 790.073 73.445C790.073 71.313 790.502 69.506 791.36 68.024C792.218 66.516 793.336 65.372 794.714 64.592C796.092 63.786 797.574 63.383 799.16 63.383C800.772 63.383 802.267 63.786 803.645 64.592C805.023 65.372 806.141 66.516 806.999 68.024C807.857 69.506 808.286 71.313 808.286 73.445C808.286 75.551 807.857 77.358 806.999 78.866C806.141 80.348 805.023 81.492 803.645 82.298C802.267 83.078 800.772 83.468 799.16 83.468ZM799.16 79.802C800.564 79.802 801.669 79.217 802.475 78.047C803.281 76.877 803.684 75.343 803.684 73.445C803.684 71.521 803.281 69.974 802.475 68.804C801.669 67.634 800.564 67.049 799.16 67.049C797.756 67.049 796.651 67.634 795.845 68.804C795.065 69.974 794.675 71.521 794.675 73.445C794.675 75.343 795.065 76.877 795.845 78.047C796.651 79.217 797.756 79.802 799.16 79.802ZM819.706 83.468C817.314 83.468 815.403 82.584 813.973 80.816C812.543 79.048 811.828 76.591 811.828 73.445C811.828 71.365 812.205 69.571 812.959 68.063C813.739 66.555 814.753 65.398 816.001 64.592C817.249 63.786 818.562 63.383 819.94 63.383C821.032 63.383 821.955 63.578 822.709 63.968C823.489 64.332 824.243 64.839 824.971 65.489L824.815 62.408V55.466H829.3V83H825.595L825.283 80.933H825.127C824.425 81.635 823.606 82.233 822.67 82.727C821.734 83.221 820.746 83.468 819.706 83.468ZM820.798 79.763C822.228 79.763 823.567 79.048 824.815 77.618V68.687C824.165 68.089 823.515 67.673 822.865 67.439C822.215 67.205 821.565 67.088 820.915 67.088C819.693 67.088 818.64 67.647 817.756 68.765C816.898 69.857 816.469 71.404 816.469 73.406C816.469 75.46 816.846 77.033 817.6 78.125C818.354 79.217 819.42 79.763 820.798 79.763ZM840.979 83.468C838.925 83.468 837.43 82.805 836.494 81.479C835.558 80.153 835.09 78.281 835.09 75.863V63.851H839.575V75.278C839.575 76.864 839.809 77.982 840.277 78.632C840.745 79.282 841.499 79.607 842.539 79.607C843.371 79.607 844.099 79.399 844.723 78.983C845.373 78.567 846.062 77.891 846.79 76.955V63.851H851.275V83H847.609L847.258 80.192H847.141C846.309 81.18 845.399 81.973 844.411 82.571C843.423 83.169 842.279 83.468 840.979 83.468ZM865.224 83.468C863.482 83.468 861.909 83.078 860.505 82.298C859.127 81.492 858.022 80.348 857.19 78.866C856.384 77.358 855.981 75.551 855.981 73.445C855.981 71.313 856.423 69.506 857.307 68.024C858.191 66.516 859.361 65.372 860.817 64.592C862.299 63.786 863.885 63.383 865.575 63.383C866.797 63.383 867.863 63.591 868.773 64.007C869.683 64.423 870.489 64.93 871.191 65.528L869.007 68.453C868.513 68.011 868.006 67.673 867.486 67.439C866.966 67.179 866.407 67.049 865.809 67.049C864.275 67.049 863.014 67.634 862.026 68.804C861.064 69.974 860.583 71.521 860.583 73.445C860.583 75.343 861.051 76.877 861.987 78.047C862.949 79.217 864.184 79.802 865.692 79.802C866.446 79.802 867.148 79.646 867.798 79.334C868.474 78.996 869.085 78.606 869.631 78.164L871.464 81.128C870.58 81.908 869.592 82.493 868.5 82.883C867.408 83.273 866.316 83.468 865.224 83.468ZM881.882 83.468C879.672 83.468 878.099 82.831 877.163 81.557C876.253 80.257 875.798 78.58 875.798 76.526V67.4H873.068V64.046L876.032 63.851L876.578 58.625H880.322V63.851H885.197V67.4H880.322V76.526C880.322 78.762 881.219 79.88 883.013 79.88C883.351 79.88 883.702 79.841 884.066 79.763C884.43 79.659 884.742 79.555 885.002 79.451L885.782 82.766C885.262 82.948 884.664 83.104 883.988 83.234C883.338 83.39 882.636 83.468 881.882 83.468ZM889.5 83V63.851H893.985V83H889.5ZM891.762 60.497C890.956 60.497 890.306 60.263 889.812 59.795C889.318 59.327 889.071 58.703 889.071 57.923C889.071 57.169 889.318 56.558 889.812 56.09C890.306 55.622 890.956 55.388 891.762 55.388C892.568 55.388 893.218 55.622 893.712 56.09C894.206 56.558 894.453 57.169 894.453 57.923C894.453 58.703 894.206 59.327 893.712 59.795C893.218 60.263 892.568 60.497 891.762 60.497ZM904.27 83L897.601 63.851H902.164L905.206 73.796C905.466 74.732 905.726 75.681 905.986 76.643C906.272 77.605 906.545 78.58 906.805 79.568H906.961C907.247 78.58 907.52 77.605 907.78 76.643C908.066 75.681 908.339 74.732 908.599 73.796L911.641 63.851H915.97L909.457 83H904.27ZM919.563 83V63.851H924.048V83H919.563ZM921.825 60.497C921.019 60.497 920.369 60.263 919.875 59.795C919.381 59.327 919.134 58.703 919.134 57.923C919.134 57.169 919.381 56.558 919.875 56.09C920.369 55.622 921.019 55.388 921.825 55.388C922.631 55.388 923.281 55.622 923.775 56.09C924.269 56.558 924.516 57.169 924.516 57.923C924.516 58.703 924.269 59.327 923.775 59.795C923.281 60.263 922.631 60.497 921.825 60.497ZM936.79 83.468C934.58 83.468 933.007 82.831 932.071 81.557C931.161 80.257 930.706 78.58 930.706 76.526V67.4H927.976V64.046L930.94 63.851L931.486 58.625H935.23V63.851H940.105V67.4H935.23V76.526C935.23 78.762 936.127 79.88 937.921 79.88C938.259 79.88 938.61 79.841 938.974 79.763C939.338 79.659 939.65 79.555 939.91 79.451L940.69 82.766C940.17 82.948 939.572 83.104 938.896 83.234C938.246 83.39 937.544 83.468 936.79 83.468ZM945.695 90.878C945.175 90.878 944.72 90.839 944.33 90.761C943.94 90.683 943.563 90.592 943.199 90.488L944.018 86.978C944.2 87.03 944.408 87.082 944.642 87.134C944.902 87.212 945.149 87.251 945.383 87.251C946.397 87.251 947.203 86.939 947.801 86.315C948.425 85.717 948.893 84.937 949.205 83.975L949.556 82.766L942.029 63.851H946.592L949.907 73.25C950.193 74.082 950.466 74.966 950.726 75.902C951.012 76.812 951.298 77.722 951.584 78.632H951.74C951.974 77.748 952.208 76.851 952.442 75.941C952.702 75.005 952.949 74.108 953.183 73.25L956.069 63.851H960.398L953.456 83.858C952.65 86.016 951.675 87.719 950.531 88.967C949.387 90.241 947.775 90.878 945.695 90.878ZM542.763 135L537.693 115.851H542.217L544.518 125.796C544.726 126.706 544.895 127.616 545.025 128.526C545.181 129.436 545.35 130.359 545.532 131.295H545.688C545.87 130.359 546.052 129.436 546.234 128.526C546.442 127.59 546.663 126.68 546.897 125.796L549.393 115.851H553.488L556.023 125.796C556.257 126.706 556.478 127.616 556.686 128.526C556.894 129.436 557.102 130.359 557.31 131.295H557.466C557.648 130.359 557.817 129.436 557.973 128.526C558.129 127.616 558.298 126.706 558.48 125.796L560.781 115.851H564.993L560.118 135H554.775L552.552 126.069C552.344 125.159 552.149 124.262 551.967 123.378C551.785 122.468 551.59 121.506 551.382 120.492H551.226C551.044 121.506 550.862 122.468 550.68 123.378C550.498 124.288 550.303 125.198 550.095 126.108L547.911 135H542.763ZM569.051 135V115.851H573.536V135H569.051ZM571.313 112.497C570.507 112.497 569.857 112.263 569.363 111.795C568.869 111.327 568.622 110.703 568.622 109.923C568.622 109.169 568.869 108.558 569.363 108.09C569.857 107.622 570.507 107.388 571.313 107.388C572.119 107.388 572.769 107.622 573.263 108.09C573.757 108.558 574.004 109.169 574.004 109.923C574.004 110.703 573.757 111.327 573.263 111.795C572.769 112.263 572.119 112.497 571.313 112.497ZM586.278 135.468C584.068 135.468 582.495 134.831 581.559 133.557C580.649 132.257 580.194 130.58 580.194 128.526V119.4H577.464V116.046L580.428 115.851L580.974 110.625H584.718V115.851H589.593V119.4H584.718V128.526C584.718 130.762 585.615 131.88 587.409 131.88C587.747 131.88 588.098 131.841 588.462 131.763C588.826 131.659 589.138 131.555 589.398 131.451L590.178 134.766C589.658 134.948 589.06 135.104 588.384 135.234C587.734 135.39 587.032 135.468 586.278 135.468ZM593.895 135V107.466H598.38V114.564L598.224 118.269C599.03 117.515 599.927 116.852 600.915 116.28C601.903 115.682 603.047 115.383 604.347 115.383C606.401 115.383 607.896 116.046 608.832 117.372C609.768 118.698 610.236 120.57 610.236 122.988V135H605.751V123.573C605.751 121.987 605.517 120.869 605.049 120.219C604.581 119.569 603.814 119.244 602.748 119.244C601.916 119.244 601.175 119.452 600.525 119.868C599.901 120.258 599.186 120.843 598.38 121.623V135H593.895ZM626.921 135L621.851 109.494H626.492L628.715 122.364C628.923 123.716 629.131 125.081 629.339 126.459C629.573 127.811 629.781 129.163 629.963 130.515H630.119C630.405 129.163 630.678 127.811 630.938 126.459C631.224 125.081 631.51 123.716 631.796 122.364L634.916 109.494H638.855L641.975 122.364C642.261 123.69 642.547 125.042 642.833 126.42C643.119 127.772 643.405 129.137 643.691 130.515H643.847C644.055 129.137 644.263 127.772 644.471 126.42C644.679 125.068 644.874 123.716 645.056 122.364L647.279 109.494H651.608L646.733 135H641.117L637.958 121.584C637.75 120.596 637.542 119.608 637.334 118.62C637.152 117.632 636.983 116.657 636.827 115.695H636.671C636.489 116.657 636.294 117.632 636.086 118.62C635.904 119.608 635.709 120.596 635.501 121.584L632.42 135H626.921ZM663.652 135.468C661.884 135.468 660.285 135.078 658.855 134.298C657.425 133.492 656.294 132.348 655.462 130.866C654.63 129.358 654.214 127.551 654.214 125.445C654.214 123.365 654.63 121.571 655.462 120.063C656.32 118.555 657.425 117.398 658.777 116.592C660.129 115.786 661.546 115.383 663.028 115.383C664.77 115.383 666.226 115.773 667.396 116.553C668.566 117.307 669.45 118.373 670.048 119.751C670.646 121.103 670.945 122.676 670.945 124.47C670.945 125.406 670.88 126.134 670.75 126.654H658.582C658.79 128.344 659.401 129.657 660.415 130.593C661.429 131.529 662.703 131.997 664.237 131.997C665.069 131.997 665.836 131.88 666.538 131.646C667.266 131.386 667.981 131.035 668.683 130.593L670.204 133.401C669.294 133.999 668.28 134.493 667.162 134.883C666.044 135.273 664.874 135.468 663.652 135.468ZM658.543 123.612H667.045C667.045 122.13 666.72 120.973 666.07 120.141C665.42 119.283 664.445 118.854 663.145 118.854C662.027 118.854 661.026 119.27 660.142 120.102C659.284 120.908 658.751 122.078 658.543 123.612ZM684.783 135.468C682.963 135.468 681.221 134.636 679.557 132.972H679.44L679.05 135H675.501V107.466H679.986V114.564L679.869 117.762C680.675 117.06 681.559 116.488 682.521 116.046C683.483 115.604 684.445 115.383 685.407 115.383C687.799 115.383 689.658 116.267 690.984 118.035C692.31 119.803 692.973 122.156 692.973 125.094C692.973 127.278 692.583 129.15 691.803 130.71C691.023 132.244 690.009 133.427 688.761 134.259C687.539 135.065 686.213 135.468 684.783 135.468ZM683.847 131.763C685.121 131.763 686.187 131.204 687.045 130.086C687.903 128.968 688.332 127.33 688.332 125.172C688.332 123.248 688.007 121.753 687.357 120.687C686.707 119.621 685.654 119.088 684.198 119.088C682.846 119.088 681.442 119.803 679.986 121.233V130.164C680.662 130.736 681.325 131.152 681.975 131.412C682.651 131.646 683.275 131.763 683.847 131.763ZM700.675 135L695.605 109.494H700.246L702.469 122.364C702.677 123.716 702.885 125.081 703.093 126.459C703.327 127.811 703.535 129.163 703.717 130.515H703.873C704.159 129.163 704.432 127.811 704.692 126.459C704.978 125.081 705.264 123.716 705.55 122.364L708.67 109.494H712.609L715.729 122.364C716.015 123.69 716.301 125.042 716.587 126.42C716.873 127.772 717.159 129.137 717.445 130.515H717.601C717.809 129.137 718.017 127.772 718.225 126.42C718.433 125.068 718.628 123.716 718.81 122.364L721.033 109.494H725.362L720.487 135H714.871L711.712 121.584C711.504 120.596 711.296 119.608 711.088 118.62C710.906 117.632 710.737 116.657 710.581 115.695H710.425C710.243 116.657 710.048 117.632 709.84 118.62C709.658 119.608 709.463 120.596 709.255 121.584L706.174 135H700.675ZM737.054 135.468C735.468 135.468 733.986 135.078 732.608 134.298C731.23 133.492 730.112 132.348 729.254 130.866C728.396 129.358 727.967 127.551 727.967 125.445C727.967 123.313 728.396 121.506 729.254 120.024C730.112 118.516 731.23 117.372 732.608 116.592C733.986 115.786 735.468 115.383 737.054 115.383C738.666 115.383 740.161 115.786 741.539 116.592C742.917 117.372 744.035 118.516 744.893 120.024C745.751 121.506 746.18 123.313 746.18 125.445C746.18 127.551 745.751 129.358 744.893 130.866C744.035 132.348 742.917 133.492 741.539 134.298C740.161 135.078 738.666 135.468 737.054 135.468ZM737.054 131.802C738.458 131.802 739.563 131.217 740.369 130.047C741.175 128.877 741.578 127.343 741.578 125.445C741.578 123.521 741.175 121.974 740.369 120.804C739.563 119.634 738.458 119.049 737.054 119.049C735.65 119.049 734.545 119.634 733.739 120.804C732.959 121.974 732.569 123.521 732.569 125.445C732.569 127.343 732.959 128.877 733.739 130.047C734.545 131.217 735.65 131.802 737.054 131.802ZM750.892 135V115.851H754.597L754.909 119.244H755.065C755.741 117.996 756.56 117.047 757.522 116.397C758.484 115.721 759.472 115.383 760.486 115.383C761.396 115.383 762.124 115.513 762.67 115.773L761.89 119.673C761.552 119.569 761.24 119.491 760.954 119.439C760.668 119.387 760.317 119.361 759.901 119.361C759.147 119.361 758.354 119.66 757.522 120.258C756.69 120.83 755.975 121.844 755.377 123.3V135H750.892ZM765.714 135V107.466H770.121V124.665H770.238L777.336 115.851H782.25L775.698 123.651L782.913 135H778.038L773.124 126.693L770.121 130.125V135H765.714Z" fill="white"/>
<path d="M541.5 249C541.5 234.364 553.364 222.5 568 222.5H752C766.636 222.5 778.5 234.364 778.5 249C778.5 263.636 766.636 275.5 752 275.5H568C553.364 275.5 541.5 263.636 541.5 249Z" fill="#FFC107" stroke="#FFC107"/>
<path d="M579.923 255.216C579.155 255.216 578.387 255.072 577.619 254.784C576.863 254.496 576.185 254.076 575.585 253.524L577.097 251.706C577.517 252.066 577.985 252.36 578.501 252.588C579.017 252.816 579.515 252.93 579.995 252.93C580.547 252.93 580.955 252.828 581.219 252.624C581.495 252.42 581.633 252.144 581.633 251.796C581.633 251.424 581.477 251.154 581.165 250.986C580.865 250.806 580.457 250.608 579.941 250.392L578.411 249.744C578.015 249.576 577.637 249.354 577.277 249.078C576.917 248.79 576.623 248.436 576.395 248.016C576.167 247.596 576.053 247.104 576.053 246.54C576.053 245.892 576.227 245.304 576.575 244.776C576.935 244.248 577.427 243.828 578.051 243.516C578.687 243.204 579.413 243.048 580.229 243.048C580.901 243.048 581.573 243.18 582.245 243.444C582.917 243.708 583.505 244.092 584.009 244.596L582.659 246.27C582.275 245.97 581.891 245.742 581.507 245.586C581.123 245.418 580.697 245.334 580.229 245.334C579.773 245.334 579.407 245.43 579.131 245.622C578.867 245.802 578.735 246.06 578.735 246.396C578.735 246.756 578.903 247.026 579.239 247.206C579.587 247.386 580.013 247.578 580.517 247.782L582.029 248.394C582.737 248.682 583.301 249.078 583.721 249.582C584.141 250.086 584.351 250.752 584.351 251.58C584.351 252.228 584.177 252.828 583.829 253.38C583.481 253.932 582.977 254.376 582.317 254.712C581.657 255.048 580.859 255.216 579.923 255.216ZM589.181 255.216C588.077 255.216 587.285 254.898 586.805 254.262C586.337 253.626 586.103 252.792 586.103 251.76V248.142H584.879V246.18L586.247 246.072L586.553 243.696H588.749V246.072H590.891V248.142H588.749V251.724C588.749 252.228 588.851 252.594 589.055 252.822C589.271 253.038 589.553 253.146 589.901 253.146C590.045 253.146 590.189 253.128 590.333 253.092C590.489 253.056 590.627 253.014 590.747 252.966L591.161 254.892C590.933 254.964 590.651 255.036 590.315 255.108C589.991 255.18 589.613 255.216 589.181 255.216ZM594.659 255.216C593.843 255.216 593.195 254.958 592.715 254.442C592.235 253.914 591.995 253.272 591.995 252.516C591.995 251.58 592.391 250.848 593.183 250.32C593.975 249.792 595.253 249.438 597.017 249.258C596.993 248.862 596.873 248.55 596.657 248.322C596.453 248.082 596.105 247.962 595.613 247.962C595.241 247.962 594.863 248.034 594.479 248.178C594.095 248.322 593.687 248.52 593.255 248.772L592.301 247.026C592.865 246.678 593.465 246.396 594.101 246.18C594.749 245.964 595.421 245.856 596.117 245.856C597.257 245.856 598.133 246.186 598.745 246.846C599.357 247.506 599.663 248.52 599.663 249.888V255H597.503L597.323 254.082H597.251C596.879 254.418 596.477 254.694 596.045 254.91C595.625 255.114 595.163 255.216 594.659 255.216ZM595.559 253.164C595.859 253.164 596.117 253.098 596.333 252.966C596.561 252.822 596.789 252.636 597.017 252.408V250.842C596.081 250.962 595.433 251.154 595.073 251.418C594.713 251.67 594.533 251.97 594.533 252.318C594.533 252.606 594.623 252.822 594.803 252.966C594.995 253.098 595.247 253.164 595.559 253.164ZM602.027 255V246.072H604.187L604.367 247.638H604.439C604.763 247.038 605.153 246.594 605.609 246.306C606.065 246.006 606.521 245.856 606.977 245.856C607.229 245.856 607.439 245.874 607.607 245.91C607.775 245.934 607.919 245.976 608.039 246.036L607.607 248.322C607.451 248.274 607.295 248.238 607.139 248.214C606.995 248.19 606.827 248.178 606.635 248.178C606.299 248.178 605.945 248.304 605.573 248.556C605.213 248.796 604.913 249.216 604.673 249.816V255H602.027ZM612.763 255.216C611.659 255.216 610.867 254.898 610.387 254.262C609.919 253.626 609.685 252.792 609.685 251.76V248.142H608.461V246.18L609.829 246.072L610.135 243.696H612.331V246.072H614.473V248.142H612.331V251.724C612.331 252.228 612.433 252.594 612.637 252.822C612.853 253.038 613.135 253.146 613.483 253.146C613.627 253.146 613.771 253.128 613.915 253.092C614.071 253.056 614.209 253.014 614.329 252.966L614.743 254.892C614.515 254.964 614.233 255.036 613.897 255.108C613.573 255.18 613.195 255.216 612.763 255.216ZM620.161 255V252.858H622.645V246.252H620.503V244.614C621.127 244.494 621.655 244.35 622.087 244.182C622.519 244.014 622.939 243.81 623.347 243.57H625.291V252.858H627.433V255H620.161ZM631.417 250.248H633.829V248.394C633.829 248.022 633.841 247.596 633.865 247.116C633.901 246.624 633.925 246.198 633.937 245.838H633.865C633.721 246.15 633.571 246.468 633.415 246.792C633.259 247.116 633.097 247.44 632.929 247.764L631.417 250.248ZM633.829 255V252.264H628.879V250.446L633.055 243.57H636.295V250.248H637.609V252.264H636.295V255H633.829ZM638.946 251.382V249.51H643.374V251.382H638.946ZM648.631 255.216C647.527 255.216 646.639 254.802 645.967 253.974C645.307 253.134 644.977 251.988 644.977 250.536C644.977 249.564 645.151 248.73 645.499 248.034C645.859 247.326 646.321 246.786 646.885 246.414C647.461 246.042 648.061 245.856 648.685 245.856C649.177 245.856 649.591 245.94 649.927 246.108C650.263 246.276 650.581 246.504 650.881 246.792L650.773 245.424V242.382H653.419V255H651.259L651.079 254.118H651.007C650.695 254.43 650.329 254.694 649.909 254.91C649.489 255.114 649.063 255.216 648.631 255.216ZM649.315 253.056C649.603 253.056 649.861 252.996 650.089 252.876C650.329 252.756 650.557 252.546 650.773 252.246V248.592C650.545 248.376 650.299 248.226 650.035 248.142C649.783 248.058 649.537 248.016 649.297 248.016C648.877 248.016 648.505 248.22 648.181 248.628C647.857 249.024 647.695 249.648 647.695 250.5C647.695 251.376 647.833 252.024 648.109 252.444C648.397 252.852 648.799 253.056 649.315 253.056ZM658.139 255.216C657.323 255.216 656.675 254.958 656.195 254.442C655.715 253.914 655.475 253.272 655.475 252.516C655.475 251.58 655.871 250.848 656.663 250.32C657.455 249.792 658.733 249.438 660.497 249.258C660.473 248.862 660.353 248.55 660.137 248.322C659.933 248.082 659.585 247.962 659.093 247.962C658.721 247.962 658.343 248.034 657.959 248.178C657.575 248.322 657.167 248.52 656.735 248.772L655.781 247.026C656.345 246.678 656.945 246.396 657.581 246.18C658.229 245.964 658.901 245.856 659.597 245.856C660.737 245.856 661.613 246.186 662.225 246.846C662.837 247.506 663.143 248.52 663.143 249.888V255H660.983L660.803 254.082H660.731C660.359 254.418 659.957 254.694 659.525 254.91C659.105 255.114 658.643 255.216 658.139 255.216ZM659.039 253.164C659.339 253.164 659.597 253.098 659.813 252.966C660.041 252.822 660.269 252.636 660.497 252.408V250.842C659.561 250.962 658.913 251.154 658.553 251.418C658.193 251.67 658.013 251.97 658.013 252.318C658.013 252.606 658.103 252.822 658.283 252.966C658.475 253.098 658.727 253.164 659.039 253.164ZM666.497 258.492C666.233 258.492 665.999 258.474 665.795 258.438C665.603 258.402 665.417 258.36 665.237 258.312L665.705 256.296C665.789 256.308 665.885 256.326 665.993 256.35C666.101 256.386 666.203 256.404 666.299 256.404C666.743 256.404 667.085 256.296 667.325 256.08C667.565 255.864 667.745 255.582 667.865 255.234L667.991 254.766L664.553 246.072H667.217L668.495 249.906C668.627 250.314 668.747 250.728 668.855 251.148C668.963 251.568 669.077 252 669.197 252.444H669.269C669.365 252.024 669.461 251.604 669.557 251.184C669.665 250.752 669.773 250.326 669.881 249.906L670.961 246.072H673.499L670.403 255.09C670.127 255.834 669.821 256.458 669.485 256.962C669.149 257.478 668.741 257.862 668.261 258.114C667.793 258.366 667.205 258.492 666.497 258.492ZM679.2 255V248.142H678.012V246.18L679.2 246.09V245.604C679.2 244.968 679.308 244.392 679.524 243.876C679.74 243.36 680.088 242.946 680.568 242.634C681.048 242.322 681.69 242.166 682.494 242.166C682.866 242.166 683.208 242.202 683.52 242.274C683.832 242.346 684.084 242.418 684.276 242.49L683.79 244.434C683.634 244.374 683.478 244.332 683.322 244.308C683.166 244.272 683.016 244.254 682.872 244.254C682.548 244.254 682.296 244.356 682.116 244.56C681.936 244.752 681.846 245.076 681.846 245.532V246.072H683.448V248.142H681.846V255H679.2ZM685.01 255V246.072H687.17L687.35 247.638H687.422C687.746 247.038 688.136 246.594 688.592 246.306C689.048 246.006 689.504 245.856 689.96 245.856C690.212 245.856 690.422 245.874 690.59 245.91C690.758 245.934 690.902 245.976 691.022 246.036L690.59 248.322C690.434 248.274 690.278 248.238 690.122 248.214C689.978 248.19 689.81 248.178 689.618 248.178C689.282 248.178 688.928 248.304 688.556 248.556C688.196 248.796 687.896 249.216 687.656 249.816V255H685.01ZM696.128 255.216C695.276 255.216 694.508 255.03 693.824 254.658C693.14 254.286 692.6 253.752 692.204 253.056C691.808 252.36 691.61 251.52 691.61 250.536C691.61 249.564 691.808 248.73 692.204 248.034C692.612 247.338 693.14 246.804 693.788 246.432C694.436 246.048 695.114 245.856 695.822 245.856C696.674 245.856 697.376 246.048 697.928 246.432C698.492 246.804 698.912 247.314 699.188 247.962C699.476 248.598 699.62 249.324 699.62 250.14C699.62 250.368 699.608 250.596 699.584 250.824C699.56 251.04 699.536 251.202 699.512 251.31H694.166C694.286 251.958 694.556 252.438 694.976 252.75C695.396 253.05 695.9 253.2 696.488 253.2C697.124 253.2 697.766 253.002 698.414 252.606L699.296 254.208C698.84 254.52 698.33 254.766 697.766 254.946C697.202 255.126 696.656 255.216 696.128 255.216ZM694.148 249.564H697.37C697.37 249.072 697.25 248.67 697.01 248.358C696.782 248.034 696.404 247.872 695.876 247.872C695.468 247.872 695.102 248.016 694.778 248.304C694.454 248.58 694.244 249 694.148 249.564ZM705.571 255.216C704.719 255.216 703.951 255.03 703.267 254.658C702.583 254.286 702.043 253.752 701.647 253.056C701.251 252.36 701.053 251.52 701.053 250.536C701.053 249.564 701.251 248.73 701.647 248.034C702.055 247.338 702.583 246.804 703.231 246.432C703.879 246.048 704.557 245.856 705.265 245.856C706.117 245.856 706.819 246.048 707.371 246.432C707.935 246.804 708.355 247.314 708.631 247.962C708.919 248.598 709.063 249.324 709.063 250.14C709.063 250.368 709.051 250.596 709.027 250.824C709.003 251.04 708.979 251.202 708.955 251.31H703.609C703.729 251.958 703.999 252.438 704.419 252.75C704.839 253.05 705.343 253.2 705.931 253.2C706.567 253.2 707.209 253.002 707.857 252.606L708.739 254.208C708.283 254.52 707.773 254.766 707.209 254.946C706.645 255.126 706.099 255.216 705.571 255.216ZM703.591 249.564H706.813C706.813 249.072 706.693 248.67 706.453 248.358C706.225 248.034 705.847 247.872 705.319 247.872C704.911 247.872 704.545 248.016 704.221 248.304C703.897 248.58 703.687 249 703.591 249.564ZM718.185 255.216C717.081 255.216 716.289 254.898 715.809 254.262C715.341 253.626 715.107 252.792 715.107 251.76V248.142H713.883V246.18L715.251 246.072L715.557 243.696H717.753V246.072H719.895V248.142H717.753V251.724C717.753 252.228 717.855 252.594 718.059 252.822C718.275 253.038 718.557 253.146 718.905 253.146C719.049 253.146 719.193 253.128 719.337 253.092C719.493 253.056 719.631 253.014 719.751 252.966L720.165 254.892C719.937 254.964 719.655 255.036 719.319 255.108C718.995 255.18 718.617 255.216 718.185 255.216ZM721.763 255V246.072H723.923L724.103 247.638H724.175C724.499 247.038 724.889 246.594 725.345 246.306C725.801 246.006 726.257 245.856 726.713 245.856C726.965 245.856 727.175 245.874 727.343 245.91C727.511 245.934 727.655 245.976 727.775 246.036L727.343 248.322C727.187 248.274 727.031 248.238 726.875 248.214C726.731 248.19 726.563 248.178 726.371 248.178C726.035 248.178 725.681 248.304 725.309 248.556C724.949 248.796 724.649 249.216 724.409 249.816V255H721.763ZM729.061 255V246.072H731.707V255H729.061ZM730.375 244.758C729.931 244.758 729.571 244.632 729.295 244.38C729.019 244.128 728.881 243.792 728.881 243.372C728.881 242.952 729.019 242.616 729.295 242.364C729.571 242.112 729.931 241.986 730.375 241.986C730.819 241.986 731.179 242.112 731.455 242.364C731.731 242.616 731.869 242.952 731.869 243.372C731.869 243.792 731.731 244.128 731.455 244.38C731.179 244.632 730.819 244.758 730.375 244.758ZM736.412 255.216C735.596 255.216 734.948 254.958 734.468 254.442C733.988 253.914 733.748 253.272 733.748 252.516C733.748 251.58 734.144 250.848 734.936 250.32C735.728 249.792 737.006 249.438 738.77 249.258C738.746 248.862 738.626 248.55 738.41 248.322C738.206 248.082 737.858 247.962 737.366 247.962C736.994 247.962 736.616 248.034 736.232 248.178C735.848 248.322 735.44 248.52 735.008 248.772L734.054 247.026C734.618 246.678 735.218 246.396 735.854 246.18C736.502 245.964 737.174 245.856 737.87 245.856C739.01 245.856 739.886 246.186 740.498 246.846C741.11 247.506 741.416 248.52 741.416 249.888V255H739.256L739.076 254.082H739.004C738.632 254.418 738.23 254.694 737.798 254.91C737.378 255.114 736.916 255.216 736.412 255.216ZM737.312 253.164C737.612 253.164 737.87 253.098 738.086 252.966C738.314 252.822 738.542 252.636 738.77 252.408V250.842C737.834 250.962 737.186 251.154 736.826 251.418C736.466 251.67 736.286 251.97 736.286 252.318C736.286 252.606 736.376 252.822 736.556 252.966C736.748 253.098 737 253.164 737.312 253.164ZM746.21 255.216C745.298 255.216 744.662 254.946 744.302 254.406C743.954 253.854 743.78 253.128 743.78 252.228V242.382H746.426V252.336C746.426 252.612 746.474 252.804 746.57 252.912C746.678 253.02 746.786 253.074 746.894 253.074C746.954 253.074 747.002 253.074 747.038 253.074C747.086 253.062 747.146 253.05 747.218 253.038L747.542 255C747.398 255.06 747.212 255.108 746.984 255.144C746.768 255.192 746.51 255.216 746.21 255.216Z" fill="white"/>
<path d="M521.623 185V174.504H522.999L526.791 181.096L527.927 183.272H527.991C527.959 182.739 527.922 182.189 527.879 181.624C527.847 181.048 527.831 180.483 527.831 179.928V174.504H529.095V185H527.719L523.911 178.392L522.775 176.232H522.711C522.754 176.755 522.791 177.293 522.823 177.848C522.866 178.403 522.887 178.957 522.887 179.512V185H521.623ZM534.991 185.192C534.361 185.192 533.769 185.032 533.215 184.712C532.671 184.392 532.228 183.928 531.887 183.32C531.556 182.712 531.391 181.981 531.391 181.128C531.391 180.253 531.556 179.512 531.887 178.904C532.228 178.296 532.671 177.832 533.215 177.512C533.769 177.192 534.361 177.032 534.991 177.032C535.631 177.032 536.223 177.192 536.767 177.512C537.311 177.832 537.748 178.296 538.079 178.904C538.42 179.512 538.591 180.253 538.591 181.128C538.591 181.981 538.42 182.712 538.079 183.32C537.748 183.928 537.311 184.392 536.767 184.712C536.223 185.032 535.631 185.192 534.991 185.192ZM534.991 184.104C535.663 184.104 536.201 183.832 536.607 183.288C537.023 182.733 537.231 182.013 537.231 181.128C537.231 180.232 537.023 179.507 536.607 178.952C536.201 178.397 535.663 178.12 534.991 178.12C534.329 178.12 533.791 178.397 533.375 178.952C532.959 179.507 532.751 180.232 532.751 181.128C532.751 182.013 532.959 182.733 533.375 183.288C533.791 183.832 534.329 184.104 534.991 184.104ZM548.162 185.192C547.287 185.192 546.503 184.979 545.81 184.552C545.127 184.115 544.583 183.491 544.178 182.68C543.783 181.869 543.586 180.893 543.586 179.752C543.586 178.621 543.788 177.651 544.194 176.84C544.599 176.029 545.154 175.405 545.858 174.968C546.562 174.531 547.356 174.312 548.242 174.312C548.882 174.312 549.447 174.445 549.938 174.712C550.428 174.968 550.823 175.267 551.122 175.608L550.402 176.472C550.124 176.173 549.81 175.933 549.458 175.752C549.106 175.571 548.706 175.48 548.258 175.48C547.596 175.48 547.015 175.656 546.514 176.008C546.023 176.349 545.639 176.835 545.362 177.464C545.095 178.093 544.962 178.845 544.962 179.72C544.962 180.595 545.095 181.357 545.362 182.008C545.628 182.648 546.002 183.144 546.482 183.496C546.972 183.848 547.548 184.024 548.21 184.024C548.711 184.024 549.159 183.917 549.554 183.704C549.948 183.491 550.311 183.203 550.642 182.84L551.378 183.672C550.962 184.152 550.492 184.525 549.97 184.792C549.447 185.059 548.844 185.192 548.162 185.192ZM553.318 185V177.224H554.406L554.518 178.632H554.566C554.833 178.141 555.158 177.752 555.542 177.464C555.926 177.176 556.337 177.032 556.774 177.032C557.084 177.032 557.361 177.085 557.606 177.192L557.35 178.344C557.222 178.301 557.105 178.269 556.998 178.248C556.892 178.227 556.758 178.216 556.598 178.216C556.268 178.216 555.921 178.349 555.558 178.616C555.206 178.883 554.897 179.347 554.63 180.008V185H553.318ZM561.973 185.192C561.279 185.192 560.65 185.032 560.085 184.712C559.519 184.381 559.071 183.912 558.741 183.304C558.41 182.696 558.245 181.971 558.245 181.128C558.245 180.275 558.41 179.544 558.741 178.936C559.082 178.328 559.519 177.859 560.053 177.528C560.586 177.197 561.146 177.032 561.733 177.032C562.725 177.032 563.487 177.363 564.021 178.024C564.565 178.685 564.837 179.571 564.837 180.68C564.837 180.819 564.831 180.957 564.821 181.096C564.821 181.224 564.81 181.336 564.789 181.432H559.541C559.594 182.253 559.85 182.909 560.309 183.4C560.778 183.891 561.386 184.136 562.133 184.136C562.506 184.136 562.847 184.083 563.157 183.976C563.477 183.859 563.781 183.709 564.069 183.528L564.533 184.392C564.202 184.605 563.823 184.792 563.397 184.952C562.981 185.112 562.506 185.192 561.973 185.192ZM559.525 180.488H563.685C563.685 179.699 563.514 179.101 563.173 178.696C562.842 178.28 562.373 178.072 561.765 178.072C561.221 178.072 560.73 178.285 560.293 178.712C559.866 179.128 559.61 179.72 559.525 180.488ZM569.526 185.192C568.556 185.192 567.777 184.84 567.19 184.136C566.604 183.421 566.31 182.419 566.31 181.128C566.31 180.285 566.465 179.56 566.774 178.952C567.094 178.333 567.51 177.859 568.022 177.528C568.545 177.197 569.1 177.032 569.686 177.032C570.134 177.032 570.524 177.112 570.854 177.272C571.185 177.432 571.521 177.651 571.862 177.928L571.798 176.6V173.608H573.126V185H572.038L571.926 184.088H571.878C571.58 184.387 571.228 184.648 570.822 184.872C570.417 185.085 569.985 185.192 569.526 185.192ZM569.814 184.088C570.497 184.088 571.158 183.731 571.798 183.016V178.952C571.468 178.653 571.148 178.445 570.838 178.328C570.54 178.2 570.23 178.136 569.91 178.136C569.494 178.136 569.116 178.264 568.774 178.52C568.444 178.765 568.177 179.112 567.974 179.56C567.772 179.997 567.67 180.515 567.67 181.112C567.67 182.04 567.857 182.771 568.23 183.304C568.604 183.827 569.132 184.088 569.814 184.088ZM575.857 185V177.224H577.169V185H575.857ZM576.529 175.624C576.273 175.624 576.06 175.549 575.889 175.4C575.729 175.24 575.649 175.027 575.649 174.76C575.649 174.504 575.729 174.296 575.889 174.136C576.06 173.976 576.273 173.896 576.529 173.896C576.785 173.896 576.993 173.976 577.153 174.136C577.324 174.296 577.409 174.504 577.409 174.76C577.409 175.027 577.324 175.24 577.153 175.4C576.993 175.549 576.785 175.624 576.529 175.624ZM582.355 185.192C581.523 185.192 580.941 184.952 580.611 184.472C580.291 183.992 580.131 183.368 580.131 182.6V178.296H578.979V177.304L580.195 177.224L580.355 175.048H581.459V177.224H583.555V178.296H581.459V182.616C581.459 183.096 581.544 183.469 581.715 183.736C581.896 183.992 582.211 184.12 582.659 184.12C582.797 184.12 582.947 184.099 583.107 184.056C583.267 184.003 583.411 183.955 583.539 183.912L583.795 184.904C583.581 184.979 583.347 185.043 583.091 185.096C582.845 185.16 582.6 185.192 582.355 185.192ZM592.836 185.192C591.962 185.192 591.178 184.979 590.484 184.552C589.802 184.115 589.258 183.491 588.852 182.68C588.458 181.869 588.26 180.893 588.26 179.752C588.26 178.621 588.463 177.651 588.868 176.84C589.274 176.029 589.828 175.405 590.532 174.968C591.236 174.531 592.031 174.312 592.916 174.312C593.556 174.312 594.122 174.445 594.612 174.712C595.103 174.968 595.498 175.267 595.796 175.608L595.076 176.472C594.799 176.173 594.484 175.933 594.132 175.752C593.78 175.571 593.38 175.48 592.932 175.48C592.271 175.48 591.69 175.656 591.188 176.008C590.698 176.349 590.314 176.835 590.036 177.464C589.77 178.093 589.636 178.845 589.636 179.72C589.636 180.595 589.77 181.357 590.036 182.008C590.303 182.648 590.676 183.144 591.156 183.496C591.647 183.848 592.223 184.024 592.884 184.024C593.386 184.024 593.834 183.917 594.228 183.704C594.623 183.491 594.986 183.203 595.316 182.84L596.052 183.672C595.636 184.152 595.167 184.525 594.644 184.792C594.122 185.059 593.519 185.192 592.836 185.192ZM599.785 185.192C599.134 185.192 598.59 185 598.153 184.616C597.726 184.221 597.513 183.677 597.513 182.984C597.513 182.131 597.891 181.48 598.649 181.032C599.417 180.573 600.627 180.253 602.281 180.072C602.281 179.741 602.233 179.427 602.137 179.128C602.051 178.829 601.891 178.589 601.657 178.408C601.433 178.216 601.107 178.12 600.681 178.12C600.233 178.12 599.811 178.205 599.417 178.376C599.022 178.547 598.67 178.739 598.361 178.952L597.849 178.04C598.211 177.805 598.654 177.581 599.177 177.368C599.71 177.144 600.286 177.032 600.905 177.032C601.854 177.032 602.542 177.325 602.969 177.912C603.395 178.488 603.609 179.261 603.609 180.232V185H602.521L602.409 184.072H602.361C601.998 184.371 601.598 184.632 601.161 184.856C600.734 185.08 600.275 185.192 599.785 185.192ZM600.169 184.136C600.542 184.136 600.894 184.045 601.225 183.864C601.555 183.683 601.907 183.427 602.281 183.096V180.936C600.99 181.096 600.083 181.336 599.561 181.656C599.049 181.976 598.793 182.387 598.793 182.888C598.793 183.325 598.926 183.645 599.193 183.848C599.459 184.04 599.785 184.136 600.169 184.136ZM606.167 185V177.224H607.255L607.367 178.632H607.415C607.682 178.141 608.007 177.752 608.391 177.464C608.775 177.176 609.186 177.032 609.623 177.032C609.933 177.032 610.21 177.085 610.455 177.192L610.199 178.344C610.071 178.301 609.954 178.269 609.847 178.248C609.741 178.227 609.607 178.216 609.447 178.216C609.117 178.216 608.77 178.349 608.407 178.616C608.055 178.883 607.746 179.347 607.479 180.008V185H606.167ZM614.326 185.192C613.355 185.192 612.577 184.84 611.99 184.136C611.403 183.421 611.11 182.419 611.11 181.128C611.11 180.285 611.265 179.56 611.574 178.952C611.894 178.333 612.31 177.859 612.822 177.528C613.345 177.197 613.899 177.032 614.486 177.032C614.934 177.032 615.323 177.112 615.654 177.272C615.985 177.432 616.321 177.651 616.662 177.928L616.598 176.6V173.608H617.926V185H616.838L616.726 184.088H616.678C616.379 184.387 616.027 184.648 615.622 184.872C615.217 185.085 614.785 185.192 614.326 185.192ZM614.614 184.088C615.297 184.088 615.958 183.731 616.598 183.016V178.952C616.267 178.653 615.947 178.445 615.638 178.328C615.339 178.2 615.03 178.136 614.71 178.136C614.294 178.136 613.915 178.264 613.574 178.52C613.243 178.765 612.977 179.112 612.774 179.56C612.571 179.997 612.47 180.515 612.47 181.112C612.47 182.04 612.657 182.771 613.03 183.304C613.403 183.827 613.931 184.088 614.614 184.088ZM624.1 185V174.504H627.38C628.095 174.504 628.729 174.6 629.284 174.792C629.839 174.973 630.271 175.283 630.58 175.72C630.9 176.147 631.06 176.723 631.06 177.448C631.06 178.259 630.847 178.915 630.42 179.416C629.993 179.907 629.417 180.243 628.692 180.424L631.364 185H629.86L627.332 180.568H625.428V185H624.1ZM625.428 179.48H627.188C628.009 179.48 628.639 179.315 629.076 178.984C629.513 178.643 629.732 178.131 629.732 177.448C629.732 176.755 629.513 176.269 629.076 175.992C628.639 175.715 628.009 175.576 627.188 175.576H625.428V179.48ZM636.189 185.192C635.496 185.192 634.867 185.032 634.301 184.712C633.736 184.381 633.288 183.912 632.957 183.304C632.627 182.696 632.461 181.971 632.461 181.128C632.461 180.275 632.627 179.544 632.957 178.936C633.299 178.328 633.736 177.859 634.269 177.528C634.803 177.197 635.363 177.032 635.949 177.032C636.941 177.032 637.704 177.363 638.237 178.024C638.781 178.685 639.053 179.571 639.053 180.68C639.053 180.819 639.048 180.957 639.037 181.096C639.037 181.224 639.027 181.336 639.005 181.432H633.757C633.811 182.253 634.067 182.909 634.525 183.4C634.995 183.891 635.603 184.136 636.349 184.136C636.723 184.136 637.064 184.083 637.373 183.976C637.693 183.859 637.997 183.709 638.285 183.528L638.749 184.392C638.419 184.605 638.04 184.792 637.613 184.952C637.197 185.112 636.723 185.192 636.189 185.192ZM633.741 180.488H637.901C637.901 179.699 637.731 179.101 637.389 178.696C637.059 178.28 636.589 178.072 635.981 178.072C635.437 178.072 634.947 178.285 634.509 178.712C634.083 179.128 633.827 179.72 633.741 180.488ZM646.015 188.28V185.512L646.079 184.104C645.769 184.403 645.412 184.659 645.007 184.872C644.612 185.085 644.191 185.192 643.743 185.192C642.772 185.192 641.993 184.84 641.407 184.136C640.82 183.421 640.527 182.419 640.527 181.128C640.527 180.285 640.681 179.56 640.991 178.952C641.311 178.333 641.727 177.859 642.239 177.528C642.761 177.197 643.316 177.032 643.903 177.032C644.351 177.032 644.745 177.112 645.087 177.272C645.428 177.421 645.775 177.651 646.127 177.96H646.159L646.287 177.224H647.343V188.28H646.015ZM644.031 184.088C644.713 184.088 645.375 183.731 646.015 183.016V178.952C645.684 178.653 645.364 178.445 645.055 178.328C644.756 178.2 644.447 178.136 644.127 178.136C643.711 178.136 643.332 178.264 642.991 178.52C642.66 178.765 642.393 179.112 642.191 179.56C641.988 179.997 641.887 180.515 641.887 181.112C641.887 182.04 642.073 182.771 642.447 183.304C642.82 183.827 643.348 184.088 644.031 184.088ZM652.346 185.192C651.524 185.192 650.922 184.936 650.538 184.424C650.154 183.901 649.962 183.144 649.962 182.152V177.224H651.29V181.976C651.29 182.701 651.402 183.229 651.626 183.56C651.86 183.891 652.234 184.056 652.746 184.056C653.151 184.056 653.508 183.955 653.818 183.752C654.138 183.539 654.479 183.203 654.842 182.744V177.224H656.154V185H655.066L654.954 183.784H654.906C654.543 184.211 654.159 184.552 653.754 184.808C653.348 185.064 652.879 185.192 652.346 185.192ZM658.889 185V177.224H660.201V185H658.889ZM659.561 175.624C659.305 175.624 659.091 175.549 658.921 175.4C658.761 175.24 658.681 175.027 658.681 174.76C658.681 174.504 658.761 174.296 658.921 174.136C659.091 173.976 659.305 173.896 659.561 173.896C659.817 173.896 660.025 173.976 660.185 174.136C660.355 174.296 660.441 174.504 660.441 174.76C660.441 175.027 660.355 175.24 660.185 175.4C660.025 175.549 659.817 175.624 659.561 175.624ZM662.938 185V177.224H664.026L664.138 178.632H664.186C664.453 178.141 664.778 177.752 665.162 177.464C665.546 177.176 665.957 177.032 666.394 177.032C666.704 177.032 666.981 177.085 667.226 177.192L666.97 178.344C666.842 178.301 666.725 178.269 666.618 178.248C666.512 178.227 666.378 178.216 666.218 178.216C665.888 178.216 665.541 178.349 665.178 178.616C664.826 178.883 664.517 179.347 664.25 180.008V185H662.938ZM671.593 185.192C670.9 185.192 670.27 185.032 669.705 184.712C669.14 184.381 668.692 183.912 668.361 183.304C668.03 182.696 667.865 181.971 667.865 181.128C667.865 180.275 668.03 179.544 668.361 178.936C668.702 178.328 669.14 177.859 669.673 177.528C670.206 177.197 670.766 177.032 671.353 177.032C672.345 177.032 673.108 177.363 673.641 178.024C674.185 178.685 674.457 179.571 674.457 180.68C674.457 180.819 674.452 180.957 674.441 181.096C674.441 181.224 674.43 181.336 674.409 181.432H669.161C669.214 182.253 669.47 182.909 669.929 183.4C670.398 183.891 671.006 184.136 671.753 184.136C672.126 184.136 672.468 184.083 672.777 183.976C673.097 183.859 673.401 183.709 673.689 183.528L674.153 184.392C673.822 184.605 673.444 184.792 673.017 184.952C672.601 185.112 672.126 185.192 671.593 185.192ZM669.145 180.488H673.305C673.305 179.699 673.134 179.101 672.793 178.696C672.462 178.28 671.993 178.072 671.385 178.072C670.841 178.072 670.35 178.285 669.913 178.712C669.486 179.128 669.23 179.72 669.145 180.488ZM679.146 185.192C678.176 185.192 677.397 184.84 676.81 184.136C676.224 183.421 675.93 182.419 675.93 181.128C675.93 180.285 676.085 179.56 676.394 178.952C676.714 178.333 677.13 177.859 677.642 177.528C678.165 177.197 678.72 177.032 679.306 177.032C679.754 177.032 680.144 177.112 680.474 177.272C680.805 177.432 681.141 177.651 681.482 177.928L681.418 176.6V173.608H682.746V185H681.658L681.546 184.088H681.498C681.2 184.387 680.848 184.648 680.442 184.872C680.037 185.085 679.605 185.192 679.146 185.192ZM679.434 184.088C680.117 184.088 680.778 183.731 681.418 183.016V178.952C681.088 178.653 680.768 178.445 680.458 178.328C680.16 178.2 679.85 178.136 679.53 178.136C679.114 178.136 678.736 178.264 678.394 178.52C678.064 178.765 677.797 179.112 677.594 179.56C677.392 179.997 677.29 180.515 677.29 181.112C677.29 182.04 677.477 182.771 677.85 183.304C678.224 183.827 678.752 184.088 679.434 184.088ZM688.953 189V173H689.881V189H688.953ZM700.175 185.192C699.3 185.192 698.516 184.979 697.823 184.552C697.14 184.115 696.596 183.491 696.191 182.68C695.796 181.869 695.599 180.893 695.599 179.752C695.599 178.621 695.802 177.651 696.207 176.84C696.612 176.029 697.167 175.405 697.871 174.968C698.575 174.531 699.37 174.312 700.255 174.312C700.895 174.312 701.46 174.445 701.951 174.712C702.442 174.968 702.836 175.267 703.135 175.608L702.415 176.472C702.138 176.173 701.823 175.933 701.471 175.752C701.119 175.571 700.719 175.48 700.271 175.48C699.61 175.48 699.028 175.656 698.527 176.008C698.036 176.349 697.652 176.835 697.375 177.464C697.108 178.093 696.975 178.845 696.975 179.72C696.975 180.595 697.108 181.357 697.375 182.008C697.642 182.648 698.015 183.144 698.495 183.496C698.986 183.848 699.562 184.024 700.223 184.024C700.724 184.024 701.172 183.917 701.567 183.704C701.962 183.491 702.324 183.203 702.655 182.84L703.391 183.672C702.975 184.152 702.506 184.525 701.983 184.792C701.46 185.059 700.858 185.192 700.175 185.192ZM707.124 185.192C706.473 185.192 705.929 185 705.492 184.616C705.065 184.221 704.852 183.677 704.852 182.984C704.852 182.131 705.23 181.48 705.988 181.032C706.756 180.573 707.966 180.253 709.62 180.072C709.62 179.741 709.572 179.427 709.476 179.128C709.39 178.829 709.23 178.589 708.996 178.408C708.772 178.216 708.446 178.12 708.02 178.12C707.572 178.12 707.15 178.205 706.756 178.376C706.361 178.547 706.009 178.739 705.7 178.952L705.188 178.04C705.55 177.805 705.993 177.581 706.516 177.368C707.049 177.144 707.625 177.032 708.244 177.032C709.193 177.032 709.881 177.325 710.308 177.912C710.734 178.488 710.948 179.261 710.948 180.232V185H709.86L709.748 184.072H709.7C709.337 184.371 708.937 184.632 708.5 184.856C708.073 185.08 707.614 185.192 707.124 185.192ZM707.508 184.136C707.881 184.136 708.233 184.045 708.564 183.864C708.894 183.683 709.246 183.427 709.62 183.096V180.936C708.329 181.096 707.422 181.336 706.9 181.656C706.388 181.976 706.132 182.387 706.132 182.888C706.132 183.325 706.265 183.645 706.532 183.848C706.798 184.04 707.124 184.136 707.508 184.136ZM713.506 185V177.224H714.594L714.706 178.344H714.754C715.128 177.971 715.522 177.661 715.938 177.416C716.354 177.16 716.829 177.032 717.362 177.032C718.184 177.032 718.781 177.293 719.154 177.816C719.538 178.328 719.73 179.08 719.73 180.072V185H718.418V180.248C718.418 179.523 718.301 178.995 718.066 178.664C717.832 178.333 717.458 178.168 716.946 178.168C716.552 178.168 716.194 178.269 715.874 178.472C715.565 178.675 715.213 178.973 714.818 179.368V185H713.506ZM725.44 185.192C724.758 185.192 724.139 185.032 723.584 184.712C723.03 184.392 722.592 183.928 722.272 183.32C721.952 182.712 721.792 181.981 721.792 181.128C721.792 180.253 721.963 179.512 722.304 178.904C722.656 178.296 723.115 177.832 723.68 177.512C724.256 177.192 724.875 177.032 725.536 177.032C726.048 177.032 726.486 177.123 726.848 177.304C727.222 177.485 727.542 177.699 727.808 177.944L727.136 178.808C726.912 178.605 726.672 178.44 726.416 178.312C726.171 178.184 725.894 178.12 725.584 178.12C725.115 178.12 724.694 178.248 724.32 178.504C723.958 178.749 723.67 179.101 723.456 179.56C723.254 180.008 723.152 180.531 723.152 181.128C723.152 182.013 723.371 182.733 723.808 183.288C724.256 183.832 724.838 184.104 725.552 184.104C725.915 184.104 726.251 184.029 726.56 183.88C726.87 183.72 727.142 183.533 727.376 183.32L727.952 184.2C727.6 184.509 727.211 184.755 726.784 184.936C726.358 185.107 725.91 185.192 725.44 185.192ZM732.585 185.192C731.892 185.192 731.263 185.032 730.697 184.712C730.132 184.381 729.684 183.912 729.353 183.304C729.023 182.696 728.857 181.971 728.857 181.128C728.857 180.275 729.023 179.544 729.353 178.936C729.695 178.328 730.132 177.859 730.665 177.528C731.199 177.197 731.759 177.032 732.345 177.032C733.337 177.032 734.1 177.363 734.633 178.024C735.177 178.685 735.449 179.571 735.449 180.68C735.449 180.819 735.444 180.957 735.433 181.096C735.433 181.224 735.423 181.336 735.401 181.432H730.153C730.207 182.253 730.463 182.909 730.921 183.4C731.391 183.891 731.999 184.136 732.745 184.136C733.119 184.136 733.46 184.083 733.769 183.976C734.089 183.859 734.393 183.709 734.681 183.528L735.145 184.392C734.815 184.605 734.436 184.792 734.009 184.952C733.593 185.112 733.119 185.192 732.585 185.192ZM730.137 180.488H734.297C734.297 179.699 734.127 179.101 733.785 178.696C733.455 178.28 732.985 178.072 732.377 178.072C731.833 178.072 731.343 178.285 730.905 178.712C730.479 179.128 730.223 179.72 730.137 180.488ZM738.875 185.192C738.384 185.192 738.027 185.043 737.803 184.744C737.589 184.435 737.483 183.997 737.483 183.432V173.608H738.795V183.528C738.795 183.731 738.832 183.88 738.907 183.976C738.981 184.061 739.067 184.104 739.163 184.104C739.205 184.104 739.243 184.104 739.275 184.104C739.317 184.093 739.376 184.083 739.451 184.072L739.627 185.064C739.541 185.107 739.44 185.139 739.323 185.16C739.205 185.181 739.056 185.192 738.875 185.192ZM746.924 179.128L746.428 180.728H749.58L749.084 179.128C748.892 178.541 748.711 177.96 748.54 177.384C748.369 176.797 748.199 176.2 748.028 175.592H747.964C747.804 176.2 747.639 176.797 747.468 177.384C747.297 177.96 747.116 178.541 746.924 179.128ZM743.724 185L747.276 174.504H748.78L752.332 185H750.908L749.916 181.8H746.092L745.084 185H743.724ZM753.803 185V177.224H754.891L755.003 178.344H755.051C755.425 177.971 755.819 177.661 756.235 177.416C756.651 177.16 757.126 177.032 757.659 177.032C758.481 177.032 759.078 177.293 759.451 177.816C759.835 178.328 760.027 179.08 760.027 180.072V185H758.715V180.248C758.715 179.523 758.598 178.995 758.363 178.664C758.129 178.333 757.755 178.168 757.243 178.168C756.849 178.168 756.491 178.269 756.171 178.472C755.862 178.675 755.51 178.973 755.115 179.368V185H753.803ZM762.793 188.344C762.623 188.344 762.457 188.328 762.297 188.296C762.148 188.264 762.009 188.227 761.881 188.184L762.137 187.144C762.223 187.165 762.319 187.187 762.425 187.208C762.532 187.24 762.633 187.256 762.729 187.256C763.167 187.256 763.529 187.096 763.817 186.776C764.105 186.467 764.329 186.072 764.489 185.592L764.665 185.016L761.545 177.224H762.905L764.489 181.528C764.607 181.859 764.729 182.216 764.857 182.6C764.996 182.984 765.124 183.357 765.241 183.72H765.305C765.423 183.368 765.535 183 765.641 182.616C765.748 182.232 765.855 181.869 765.961 181.528L767.353 177.224H768.633L765.705 185.64C765.524 186.152 765.305 186.611 765.049 187.016C764.804 187.421 764.495 187.741 764.121 187.976C763.759 188.221 763.316 188.344 762.793 188.344ZM772.694 185.192C771.862 185.192 771.281 184.952 770.95 184.472C770.63 183.992 770.47 183.368 770.47 182.6V178.296H769.318V177.304L770.534 177.224L770.694 175.048H771.798V177.224H773.894V178.296H771.798V182.616C771.798 183.096 771.883 183.469 772.054 183.736C772.235 183.992 772.55 184.12 772.998 184.12C773.137 184.12 773.286 184.099 773.446 184.056C773.606 184.003 773.75 183.955 773.878 183.912L774.134 184.904C773.921 184.979 773.686 185.043 773.43 185.096C773.185 185.16 772.939 185.192 772.694 185.192ZM775.764 185V177.224H777.076V185H775.764ZM776.436 175.624C776.18 175.624 775.967 175.549 775.796 175.4C775.636 175.24 775.556 175.027 775.556 174.76C775.556 174.504 775.636 174.296 775.796 174.136C775.967 173.976 776.18 173.896 776.436 173.896C776.692 173.896 776.9 173.976 777.06 174.136C777.231 174.296 777.316 174.504 777.316 174.76C777.316 175.027 777.231 175.24 777.06 175.4C776.9 175.549 776.692 175.624 776.436 175.624ZM779.814 185V177.224H780.902L781.014 178.344H781.062C781.403 177.971 781.776 177.661 782.182 177.416C782.587 177.16 783.019 177.032 783.478 177.032C784.075 177.032 784.539 177.165 784.87 177.432C785.211 177.688 785.462 178.051 785.622 178.52C786.027 178.083 786.438 177.725 786.854 177.448C787.27 177.171 787.712 177.032 788.182 177.032C788.982 177.032 789.574 177.293 789.958 177.816C790.352 178.328 790.55 179.08 790.55 180.072V185H789.238V180.248C789.238 179.523 789.12 178.995 788.886 178.664C788.651 178.333 788.288 178.168 787.798 178.168C787.222 178.168 786.571 178.568 785.846 179.368V185H784.534V180.248C784.534 179.523 784.416 178.995 784.182 178.664C783.947 178.333 783.579 178.168 783.078 178.168C782.502 178.168 781.851 178.568 781.126 179.368V185H779.814ZM796.343 185.192C795.65 185.192 795.021 185.032 794.455 184.712C793.89 184.381 793.442 183.912 793.111 183.304C792.781 182.696 792.615 181.971 792.615 181.128C792.615 180.275 792.781 179.544 793.111 178.936C793.453 178.328 793.89 177.859 794.423 177.528C794.957 177.197 795.517 177.032 796.103 177.032C797.095 177.032 797.858 177.363 798.391 178.024C798.935 178.685 799.207 179.571 799.207 180.68C799.207 180.819 799.202 180.957 799.191 181.096C799.191 181.224 799.181 181.336 799.159 181.432H793.911C793.965 182.253 794.221 182.909 794.679 183.4C795.149 183.891 795.757 184.136 796.503 184.136C796.877 184.136 797.218 184.083 797.527 183.976C797.847 183.859 798.151 183.709 798.439 183.528L798.903 184.392C798.573 184.605 798.194 184.792 797.767 184.952C797.351 185.112 796.877 185.192 796.343 185.192ZM793.895 180.488H798.055C798.055 179.699 797.885 179.101 797.543 178.696C797.213 178.28 796.743 178.072 796.135 178.072C795.591 178.072 795.101 178.285 794.663 178.712C794.237 179.128 793.981 179.72 793.895 180.488Z" fill="white"/>
</g>
<defs>
<linearGradient id="paint0_linear_501_1667" x1="197.517" y1="499.289" x2="1836.57" y2="-312.383" gradientUnits="userSpaceOnUse">
<stop stop-color="#63F4FD"/>
<stop offset="0.677083" stop-color="#8274FE"/>
<stop offset="0.989583" stop-color="#7C2BFF"/>
</linearGradient>
<linearGradient id="paint1_linear_501_1667" x1="1072.99" y1="-311.312" x2="-378.892" y2="801.048" gradientUnits="userSpaceOnUse">
<stop stop-color="#63F4FD"/>
<stop offset="0.677083" stop-color="#8274FE"/>
<stop offset="0.989583" stop-color="#7C2BFF"/>
</linearGradient>
<clipPath id="clip0_501_1667">
<rect width="1320" height="328" rx="25" fill="white"/>
</clipPath>
</defs>
</svg>
